<svg width="356" height="213" viewBox="0 0 356 213" fill="none" xmlns="http://www.w3.org/2000/svg">
<g clip-path="url(#clip0_581_8101)">
<path d="M272.562 210.591C268.004 206.737 265.236 200.649 265.962 194.721C266.688 188.794 271.185 183.345 277.018 182.087C282.851 180.828 289.5 184.312 291.271 190.015C292.246 179.021 293.37 167.566 299.211 158.204C304.499 149.727 313.659 143.661 323.586 142.576C333.513 141.491 343.965 145.589 350.156 153.431C356.347 161.272 357.863 172.671 353.527 181.674C350.333 188.306 344.448 193.241 338.282 197.256C318.357 210.122 294.46 215.354 270.988 211.989L272.562 210.591Z" fill="#E0E3E2"/>
<path d="M340.339 145.816C332.148 152.493 324.634 159.961 317.905 168.111C307.374 180.822 298.852 195.074 292.636 210.37C292.181 211.485 293.992 211.971 294.441 210.868C304.612 186.009 320.847 164.099 341.663 147.141C342.598 146.38 341.266 145.061 340.339 145.816Z" fill="white"/>
<path d="M114.602 209.544C120.862 204.25 124.665 195.888 123.668 187.747C122.67 179.606 116.494 172.122 108.482 170.393C100.471 168.664 91.3382 173.45 88.9048 181.282C87.5656 166.182 86.0224 150.449 78.0004 137.59C70.7367 125.947 58.1558 117.615 44.5209 116.125C30.8861 114.634 16.5304 120.264 8.0268 131.034C-0.476752 141.804 -2.55881 157.461 3.39686 169.826C7.78419 178.935 15.8672 185.714 24.3362 191.229C51.3552 208.823 84.8722 216.161 116.764 211.464" fill="#E0E3E2"/>
<path d="M21.5101 120.576C32.7605 129.746 43.0816 140.003 52.324 151.197C61.568 162.38 69.7062 174.434 76.6246 187.189C80.4916 194.344 83.9654 201.705 87.0306 209.24C87.6555 210.772 85.1687 211.439 84.5507 209.924C79.1216 196.641 72.4047 183.923 64.4964 171.951C56.6266 160.023 47.6191 148.888 37.6005 138.7C31.934 132.941 25.9553 127.498 19.6916 122.396C18.4077 121.349 20.2368 119.538 21.5101 120.576Z" fill="white"/>
<path d="M255.543 212.534H106.186V59.1737C106.186 26.5451 132.711 0 165.315 0H196.414C229.018 0 255.543 26.5451 255.543 59.1737V212.534Z" fill="#E0E3E2"/>
<path d="M224.444 212.534H106.186V59.1736C106.154 46.6711 110.11 34.4846 117.478 24.3884C117.75 24.0179 118.021 23.6522 118.3 23.2905C121.864 18.6123 126.106 14.4923 130.885 11.0665C131.155 10.8699 131.426 10.6768 131.701 10.4836C135.699 7.71427 140.025 5.45041 144.579 3.74353C144.849 3.64095 145.125 3.53817 145.4 3.43959C149.519 1.96868 153.788 0.961109 158.129 0.435488C158.399 0.398694 158.675 0.369902 158.951 0.34111C163.182 -0.111587 167.449 -0.111587 171.679 0.34111C171.955 0.369902 172.231 0.39869 172.504 0.435882C176.844 0.961537 181.112 1.96898 185.23 3.43961C185.505 3.53819 185.781 3.64097 186.052 3.74374C190.549 5.42909 194.824 7.65917 198.78 10.3842C199.055 10.5732 199.33 10.7663 199.601 10.9595C202.28 12.873 204.796 15.0048 207.124 17.333C208.991 19.2006 210.73 21.1912 212.331 23.2917C212.609 23.6522 212.88 24.0179 213.151 24.3878C220.52 34.4842 224.476 46.6709 224.444 59.1736V212.534Z" fill="#767680"/>
<path d="M214.828 143.941C218.443 143.941 221.375 141.008 221.375 137.389C221.375 133.771 218.443 130.837 214.828 130.837C211.212 130.837 208.28 133.771 208.28 137.389C208.28 141.008 211.212 143.941 214.828 143.941Z" fill="#2C5EA7"/>
<path d="M243.307 207.94H238.29L235.904 188.576L243.308 188.576L243.307 207.94Z" fill="#FFDAD6"/>
<path d="M234.707 206.506H244.382V212.602H228.615C228.615 211.801 228.773 211.009 229.079 210.269C229.385 209.529 229.834 208.857 230.4 208.291C230.965 207.725 231.637 207.276 232.376 206.97C233.115 206.663 233.907 206.506 234.707 206.506Z" fill="#001B3F"/>
<path d="M268.268 207.94H263.251L260.865 188.576L268.269 188.576L268.268 207.94Z" fill="#FFDAD6"/>
<path d="M259.668 206.506H269.343V212.602H253.576C253.576 211.801 253.734 211.009 254.04 210.269C254.346 209.529 254.795 208.857 255.36 208.291C255.926 207.725 256.598 207.276 257.337 206.97C258.076 206.663 258.868 206.506 259.668 206.506Z" fill="#001B3F"/>
<path d="M218.141 138.687C217.78 138.155 217.54 137.55 217.438 136.915C217.336 136.28 217.374 135.631 217.55 135.012C217.726 134.394 218.036 133.821 218.457 133.335C218.878 132.849 219.4 132.462 219.987 132.199L237.04 85.1609L245.432 89.7438L225.96 134.696C226.335 135.711 226.324 136.829 225.93 137.838C225.536 138.846 224.786 139.675 223.822 140.167C222.859 140.659 221.748 140.78 220.701 140.508C219.654 140.235 218.743 139.587 218.141 138.687Z" fill="#FFDAD6"/>
<path d="M265.706 147.526C265.148 147.206 264.667 146.768 264.297 146.242C263.927 145.716 263.677 145.115 263.564 144.482C263.452 143.849 263.479 143.199 263.644 142.577C263.81 141.956 264.109 141.378 264.522 140.885L259.239 91.1265L268.788 91.5631L270.984 140.507C271.766 141.256 272.246 142.266 272.334 143.345C272.421 144.424 272.11 145.498 271.46 146.363C270.809 147.228 269.864 147.824 268.803 148.039C267.743 148.253 266.641 148.071 265.706 147.526Z" fill="#FFDAD6"/>
<path d="M250.471 76.4481C256.021 76.4481 260.521 71.945 260.521 66.3902C260.521 60.8354 256.021 56.3323 250.471 56.3323C244.92 56.3323 240.421 60.8354 240.421 66.3902C240.421 71.945 244.92 76.4481 250.471 76.4481Z" fill="#FFDAD6"/>
<path d="M265.641 136.209H235.342L235.378 135.974C235.433 135.621 240.778 100.576 236.836 89.1113C236.44 87.9846 236.475 86.7513 236.933 85.6487C237.392 84.5462 238.242 83.6523 239.319 83.1392C244.954 80.4834 255.772 77.2132 264.902 85.1496C266.246 86.3366 267.295 87.8203 267.967 89.4831C268.638 91.1459 268.914 92.9424 268.773 94.7304L265.641 136.209Z" fill="#2C5EA7"/>
<path d="M241.161 105.755L227.52 102.986L233.914 87.8217C234.297 86.353 235.246 85.0961 236.553 84.3268C237.861 83.5575 239.42 83.3385 240.888 83.7179C242.357 84.0973 243.615 85.0441 244.387 86.3506C245.159 87.6571 245.381 89.2167 245.006 90.6872L241.161 105.755Z" fill="#2C5EA7"/>
<path d="M258.632 110.898L257.812 92.0844C257.19 88.5478 259.213 85.2045 262.324 84.6581C265.437 84.1136 268.475 86.5664 269.1 90.129L272.182 107.708L258.632 110.898Z" fill="#2C5EA7"/>
<path d="M264.633 133.957C269.509 152.539 270.041 176.165 268.725 201.935L262.178 201.116L250.311 151.975L243.764 201.935L236.399 201.526C234.198 174.486 232.056 151.273 235.58 136.005L264.633 133.957Z" fill="#001B3F"/>
<path d="M257.093 74.1632C255.218 76.1619 251.736 75.089 251.492 72.3584C251.473 72.1465 251.474 71.9331 251.496 71.7214C251.622 70.5119 252.32 69.4138 252.153 68.1367C252.115 67.8189 251.997 67.516 251.809 67.2567C250.315 65.2545 246.808 68.1523 245.398 66.3397C244.533 65.2283 245.55 63.4785 244.886 62.2363C244.01 60.5968 241.417 61.4055 239.79 60.5077C237.98 59.5087 238.089 56.7299 239.28 55.0397C240.733 52.9784 243.28 51.8785 245.796 51.72C248.311 51.5614 250.81 52.242 253.158 53.1579C255.826 54.1986 258.473 55.6369 260.115 57.985C262.112 60.8405 262.304 64.6796 261.305 68.0186C260.698 70.0498 258.624 72.531 257.093 74.1632Z" fill="#001B3F"/>
<path d="M343.717 212.797H41.6101C41.4811 212.797 41.3576 212.745 41.2665 212.654C41.1754 212.563 41.1243 212.439 41.1243 212.31C41.1243 212.181 41.1754 212.057 41.2665 211.965C41.3576 211.874 41.4811 211.822 41.6101 211.822H343.717C343.846 211.822 343.969 211.874 344.06 211.965C344.151 212.057 344.202 212.181 344.202 212.31C344.202 212.439 344.151 212.563 344.06 212.654C343.969 212.745 343.846 212.797 343.717 212.797Z" fill="#767680"/>
<path d="M191.913 168.102H138.717C138.017 168.106 137.343 167.832 136.845 167.339C136.346 166.847 136.063 166.176 136.057 165.475V46.649C136.063 45.9479 136.346 45.2776 136.845 44.7851C137.343 44.2926 138.017 44.0181 138.717 44.0219H191.913C192.613 44.0181 193.287 44.2926 193.785 44.7851C194.284 45.2776 194.567 45.9479 194.572 46.649V165.475C194.567 166.176 194.284 166.847 193.785 167.339C193.287 167.832 192.613 168.106 191.913 168.102Z" fill="white"/>
<path d="M194.572 82.4703H136.057V83.2893H194.572V82.4703Z" fill="#767680"/>
<path d="M194.777 129.199H136.262V130.018H194.777V129.199Z" fill="#767680"/>
<path d="M155.29 44.0219H154.471V168.512H155.29V44.0219Z" fill="#767680"/>
<path d="M175.749 44.0219H174.931V168.512H175.749V44.0219Z" fill="#767680"/>
</g>
<defs>
<clipPath id="clip0_581_8101">
<rect width="356" height="213" fill="white"/>
</clipPath>
</defs>
</svg>
