<svg width="452" height="979" viewBox="0 0 452 979" fill="none" xmlns="http://www.w3.org/2000/svg">
<rect width="452" height="978.602" rx="17.5534" fill="#101414"/>
<g clip-path="url(#clip0_271_4717)">
<mask id="mask0_271_4717" style="mask-type:alpha" maskUnits="userSpaceOnUse" x="0" y="0" width="452" height="979">
<rect width="452" height="978.602" transform="matrix(1 0 0 -1 0 978.602)" fill="url(#paint0_linear_271_4717)"/>
</mask>
<g mask="url(#mask0_271_4717)">
<rect width="452" height="978.602" transform="matrix(1 0 0 -1 0 978.602)" fill="#191C1C"/>
</g>
<mask id="mask1_271_4717" style="mask-type:alpha" maskUnits="userSpaceOnUse" x="0" y="0" width="452" height="979">
<rect width="452" height="978.602" transform="matrix(1 0 0 -1 0 978.602)" fill="url(#paint1_linear_271_4717)"/>
</mask>
<g mask="url(#mask1_271_4717)">
<rect width="452" height="978.602" rx="17.5534" transform="matrix(1 0 0 -1 0 978.602)" fill="#101414"/>
</g>
</g>
<g clip-path="url(#clip1_271_4717)">
<g clip-path="url(#clip2_271_4717)">
<g clip-path="url(#clip3_271_4717)">
<path d="M75.7417 321.666C75.7417 238.559 143.113 171.188 226.219 171.188C309.325 171.188 376.696 238.559 376.697 321.666C376.697 404.772 309.326 472.143 226.219 472.144C143.113 472.144 75.7417 404.773 75.7417 321.666ZM226.219 468.108C307.097 468.108 372.662 402.544 372.662 321.666C372.662 240.787 307.097 175.223 226.219 175.223C145.341 175.223 79.776 240.787 79.776 321.666C79.776 402.544 145.341 468.108 226.219 468.108Z" fill="white"/>
<path d="M226.219 466.124C306.001 466.124 370.677 401.448 370.677 321.666C370.677 241.884 306.001 177.208 226.219 177.208C146.437 177.208 81.7607 241.884 81.7607 321.666C81.7607 401.448 146.437 466.124 226.219 466.124Z" fill="white"/>
<g clip-path="url(#clip4_271_4717)">
<g clip-path="url(#clip5_271_4717)">
<g clip-path="url(#clip6_271_4717)">
<g clip-path="url(#clip7_271_4717)">
<g clip-path="url(#clip8_271_4717)">
<g clip-path="url(#clip9_271_4717)">
<g clip-path="url(#clip10_271_4717)">
<path d="M157.342 360.01V367.028H144.2V384.103H135.757V342.24H158.92V349.282H144.2V360.01H157.342ZM171.885 339.944V384.103H163.725V339.944H171.885ZM190.75 384.68C186.566 384.68 183.304 383.432 180.964 380.936C178.633 378.447 177.467 374.883 177.467 370.243V367.77C177.467 362.864 178.539 359.08 180.682 356.418C182.833 353.757 185.91 352.426 189.914 352.426C193.824 352.426 196.764 353.675 198.734 356.171C200.713 358.675 201.721 362.381 201.761 367.288V371.28H185.569C185.687 373.58 186.193 375.264 187.088 376.331C187.991 377.391 189.384 377.921 191.268 377.921C193.985 377.921 196.253 376.991 198.075 375.13L201.266 380.053C200.269 381.434 198.821 382.549 196.921 383.397C195.029 384.253 192.972 384.68 190.75 384.68ZM185.628 365.592H193.765V364.838C193.726 362.978 193.419 361.568 192.846 360.611C192.273 359.653 191.276 359.174 189.855 359.174C188.434 359.174 187.402 359.684 186.758 360.705C186.122 361.718 185.745 363.347 185.628 365.592ZM213.277 352.992L216.763 362.224L220.378 352.992H229.01L221.909 368.206L229.269 384.103H220.614L216.787 374.353L212.995 384.103H204.316L211.676 368.206L204.634 352.992H213.277ZM247.263 384.103H233.402V342.24H246.344C250.709 342.24 254.03 343.214 256.307 345.161C258.575 347.108 259.71 349.957 259.71 353.71C259.71 355.837 259.239 357.671 258.297 359.209C257.362 360.74 256.079 361.859 254.446 362.565C256.322 363.107 257.771 364.187 258.791 365.804C259.804 367.421 260.31 369.419 260.31 371.798C260.31 375.864 259.196 378.93 256.966 380.995C254.729 383.067 251.494 384.103 247.263 384.103ZM247.804 365.91H241.858V377.085H247.263C248.778 377.085 249.928 376.618 250.713 375.684C251.498 374.742 251.891 373.407 251.891 371.68C251.891 367.927 250.528 366.004 247.804 365.91ZM241.858 349.282V359.751H246.25C249.571 359.751 251.231 358.036 251.231 354.605C251.231 352.705 250.846 351.343 250.077 350.519C249.308 349.694 248.063 349.282 246.344 349.282H241.858ZM281.554 384.103L281.33 381.254C279.642 383.538 277.381 384.68 274.547 384.68C271.69 384.68 269.523 383.699 268.047 381.737C266.571 379.766 265.833 376.904 265.833 373.152V352.992H273.97V373.352C274.01 376.382 275.014 377.898 276.985 377.898C278.846 377.898 280.188 377.093 281.012 375.484V352.992H289.208V384.103H281.554ZM308.78 375.766C308.78 375.075 308.45 374.439 307.791 373.858C307.131 373.27 305.659 372.477 303.375 371.48C300.022 370.122 297.718 368.712 296.462 367.252C295.206 365.8 294.578 363.99 294.578 361.823C294.578 359.099 295.559 356.85 297.522 355.076C299.485 353.31 302.087 352.426 305.329 352.426C308.744 352.426 311.477 353.306 313.526 355.064C315.575 356.831 316.599 359.197 316.599 362.165H308.462C308.462 359.637 307.41 358.373 305.306 358.373C304.442 358.373 303.732 358.64 303.175 359.174C302.617 359.716 302.338 360.465 302.338 361.423C302.338 362.114 302.645 362.722 303.257 363.248C303.869 363.774 305.318 364.524 307.602 365.498C310.915 366.73 313.259 368.096 314.632 369.596C315.998 371.103 316.681 373.054 316.681 375.448C316.681 378.227 315.637 380.461 313.549 382.149C311.461 383.837 308.721 384.68 305.329 384.68C303.045 384.68 301.031 384.233 299.288 383.338C297.546 382.451 296.18 381.211 295.19 379.617C294.209 378.031 293.718 376.316 293.718 374.471H301.443C301.483 375.892 301.816 376.955 302.444 377.662C303.065 378.369 304.085 378.722 305.506 378.722C307.689 378.722 308.78 377.737 308.78 375.766Z" fill="black"/>
</g>
</g>
<g clip-path="url(#clip11_271_4717)">
<g clip-path="url(#clip12_271_4717)">
<path d="M138.858 405.9H135.759V395.387H138.755C139.713 395.387 140.434 395.62 140.919 396.087C141.402 396.555 141.644 397.256 141.644 398.19C141.644 398.681 141.522 399.114 141.277 399.488C141.031 399.863 140.698 400.154 140.28 400.361C140.762 400.507 141.143 400.803 141.425 401.251C141.705 401.698 141.845 402.238 141.845 402.868C141.845 403.811 141.587 404.552 141.07 405.092C140.554 405.631 139.816 405.9 138.858 405.9ZM138.914 400.982H137.081V404.767H138.885C139.385 404.767 139.783 404.601 140.076 404.27C140.37 403.941 140.517 403.478 140.517 402.88C140.517 401.615 139.983 400.982 138.914 400.982ZM137.081 396.528V399.87H138.778C139.236 399.87 139.605 399.716 139.887 399.408C140.167 399.101 140.307 398.692 140.307 398.181C140.307 397.604 140.18 397.184 139.926 396.921C139.671 396.659 139.281 396.528 138.755 396.528H137.081ZM148.762 395.387H150.09V402.86C150.08 403.857 149.791 404.637 149.223 405.199C148.656 405.763 147.864 406.045 146.849 406.045C145.81 406.045 145.015 405.769 144.465 405.217C143.917 404.667 143.638 403.881 143.628 402.86V395.387H144.944V402.809C144.944 403.517 145.094 404.045 145.394 404.394C145.695 404.743 146.18 404.918 146.849 404.918C147.523 404.918 148.01 404.743 148.31 404.394C148.611 404.045 148.762 403.517 148.762 402.809V395.387ZM156.717 403.244C156.717 402.718 156.575 402.315 156.291 402.037C156.007 401.758 155.495 401.485 154.753 401.221C154.012 400.957 153.445 400.679 153.053 400.387C152.661 400.096 152.367 399.763 152.172 399.391C151.977 399.018 151.879 398.591 151.879 398.11C151.879 397.276 152.157 396.59 152.713 396.052C153.269 395.512 153.997 395.242 154.898 395.242C155.513 395.242 156.063 395.381 156.546 395.659C157.027 395.935 157.397 396.318 157.657 396.809C157.916 397.3 158.045 397.839 158.045 398.427H156.717C156.717 397.778 156.561 397.275 156.25 396.918C155.936 396.562 155.486 396.383 154.898 396.383C154.364 396.383 153.95 396.533 153.656 396.833C153.363 397.13 153.216 397.548 153.216 398.087C153.216 398.53 153.374 398.901 153.692 399.198C154.009 399.498 154.5 399.765 155.164 400C156.2 400.343 156.94 400.765 157.385 401.266C157.831 401.766 158.054 402.421 158.054 403.229C158.054 404.081 157.777 404.763 157.223 405.276C156.669 405.788 155.916 406.045 154.963 406.045C154.352 406.045 153.787 405.911 153.269 405.642C152.752 405.376 152.346 405.001 152.05 404.516C151.755 404.033 151.607 403.479 151.607 402.854H152.935C152.935 403.502 153.116 404.007 153.479 404.368C153.844 404.731 154.338 404.912 154.963 404.912C155.545 404.912 155.983 404.762 156.276 404.462C156.57 404.165 156.717 403.759 156.717 403.244ZM163.871 395.387L165.178 402.585L165.314 403.762L165.524 402.724L167.207 395.387H168.313L169.942 402.724L170.152 403.791L170.303 402.579L171.589 395.387H172.911L170.817 405.9H169.626L167.872 398.24L167.763 397.619L167.653 398.24L165.834 405.9H164.637L162.549 395.387H163.871ZM175.812 395.387V405.9H174.49V395.387H175.812ZM184.063 395.387V396.528H181.298V405.9H179.976V396.528H177.22V395.387H184.063ZM192.497 395.387V405.9H191.166V401.041H186.938V405.9H185.616V395.387H186.938V399.908H191.166V395.387H192.497ZM203.108 395.387H204.436V402.86C204.426 403.857 204.137 404.637 203.569 405.199C203.002 405.763 202.21 406.045 201.195 406.045C200.156 406.045 199.361 405.769 198.811 405.217C198.263 404.667 197.984 403.881 197.974 402.86V395.387H199.287V402.809C199.287 403.517 199.438 404.045 199.74 404.394C200.041 404.743 200.526 404.918 201.195 404.918C201.869 404.918 202.356 404.743 202.656 404.394C202.957 404.045 203.108 403.517 203.108 402.809V395.387ZM211.063 403.244C211.063 402.718 210.921 402.315 210.637 402.037C210.353 401.758 209.841 401.485 209.099 401.221C208.358 400.957 207.791 400.679 207.399 400.387C207.007 400.096 206.713 399.763 206.518 399.391C206.323 399.018 206.225 398.591 206.225 398.11C206.225 397.276 206.503 396.59 207.059 396.052C207.615 395.512 208.343 395.242 209.244 395.242C209.86 395.242 210.409 395.381 210.892 395.659C211.373 395.935 211.742 396.318 212.001 396.809C212.261 397.3 212.391 397.839 212.391 398.427H211.063C211.063 397.778 210.906 397.275 210.593 396.918C210.281 396.562 209.832 396.383 209.244 396.383C208.71 396.383 208.296 396.533 208.002 396.833C207.709 397.13 207.562 397.548 207.562 398.087C207.562 398.53 207.72 398.901 208.038 399.198C208.355 399.498 208.846 399.765 209.511 400C210.546 400.343 211.286 400.765 211.731 401.266C212.177 401.766 212.4 402.421 212.4 403.229C212.4 404.081 212.123 404.763 211.569 405.276C211.015 405.788 210.262 406.045 209.309 406.045C208.698 406.045 208.133 405.911 207.615 405.642C207.098 405.376 206.692 405.001 206.397 404.516C206.101 404.033 205.953 403.479 205.953 402.854H207.281C207.281 403.502 207.462 404.007 207.825 404.368C208.188 404.731 208.683 404.912 209.309 404.912C209.891 404.912 210.329 404.762 210.622 404.462C210.916 404.165 211.063 403.759 211.063 403.244ZM213.964 407.993L213.207 407.473C213.659 406.842 213.894 406.192 213.914 405.524V404.318H215.221V405.364C215.221 405.851 215.102 406.338 214.863 406.825C214.625 407.31 214.325 407.7 213.964 407.993ZM226.151 405.9L225.32 403.155H221.769L220.952 405.9H219.595L222.981 395.387H224.114L227.509 405.9H226.151ZM223.546 397.235L222.114 402.017H224.98L223.546 397.235ZM233.985 405.9L232.113 401.647H230.265V405.9H228.937V395.387H231.882C232.914 395.387 233.693 395.656 234.222 396.194C234.752 396.73 235.017 397.516 235.017 398.551C235.017 399.199 234.873 399.766 234.585 400.251C234.3 400.734 233.894 401.098 233.37 401.343L235.408 405.814V405.9H233.985ZM230.265 396.528V400.514H231.868C232.422 400.514 232.863 400.336 233.192 399.979C233.522 399.622 233.686 399.146 233.686 398.551C233.686 397.202 233.075 396.528 231.853 396.528H230.265ZM241.831 405.9L239.962 401.647H238.113V405.9H236.786V395.387H239.731C240.76 395.387 241.54 395.656 242.07 396.194C242.599 396.73 242.863 397.516 242.863 398.551C242.863 399.199 242.72 399.766 242.434 400.251C242.148 400.734 241.743 401.098 241.219 401.343L243.253 405.814V405.9H241.831ZM238.113 396.528V400.514H239.716C240.27 400.514 240.712 400.336 241.041 399.979C241.37 399.622 241.535 399.146 241.535 398.551C241.535 397.202 240.924 396.528 239.701 396.528H238.113ZM246.009 395.387V405.9H244.69V395.387H246.009ZM248.94 395.387L251.332 403.871L253.737 395.387H255.186L251.915 405.9H250.762L247.497 395.387H248.94ZM261.647 399.908V401.041H257.93V404.767H262.263V405.9H256.608V395.387H262.189V396.528H257.93V399.908H261.647ZM274.172 399.654V401.567C274.172 403.003 273.866 404.108 273.255 404.882C272.644 405.657 271.775 406.045 270.649 406.045C269.567 406.045 268.711 405.668 268.083 404.915C267.454 404.162 267.127 403.096 267.104 401.718V399.74C267.104 398.336 267.414 397.236 268.035 396.439C268.656 395.641 269.523 395.242 270.635 395.242C271.743 395.242 272.605 395.623 273.222 396.386C273.841 397.149 274.158 398.238 274.172 399.654ZM272.853 401.697V399.728C272.853 398.616 272.67 397.789 272.306 397.247C271.943 396.705 271.386 396.433 270.635 396.433C269.907 396.433 269.357 396.708 268.985 397.259C268.612 397.807 268.424 398.615 268.42 399.683V401.567C268.42 402.642 268.606 403.46 268.979 404.022C269.351 404.586 269.908 404.868 270.649 404.868C271.391 404.868 271.94 404.607 272.297 404.087C272.652 403.568 272.837 402.772 272.853 401.697ZM283.082 395.387V405.9H281.754L277.543 397.8V405.9H276.215V395.387H277.543L281.766 403.525V395.387H283.082ZM294.609 395.387V396.528H291.844V405.9H290.522V396.528H287.766V395.387H294.609ZM297.54 395.387V405.9H296.218V395.387H297.54ZM299.859 395.387H301.562L304.306 403.966L307.048 395.387H308.751V405.9H307.432V401.807L307.553 397.705L304.803 405.9H303.792L301.056 397.735L301.178 401.807V405.9H299.859V395.387ZM316.065 399.908V401.041H312.347V404.767H316.68V405.9H311.025V395.387H316.606V396.528H312.347V399.908H316.065Z" fill="black"/>
</g>
</g>
</g>
</g>
<g clip-path="url(#clip13_271_4717)">
<g clip-path="url(#clip14_271_4717)">
<path d="M209.352 308.905C207.449 308.905 205.909 310.448 205.909 312.351C205.909 314.252 207.448 315.793 209.352 315.793C211.255 315.793 212.794 314.251 212.794 312.351C212.793 310.447 211.255 308.905 209.352 308.905Z" fill="black"/>
<path d="M200.932 309.638C199.433 309.638 198.222 310.853 198.222 312.347C198.222 313.846 199.434 315.058 200.932 315.058C202.426 315.058 203.637 313.846 203.637 312.347C203.637 310.853 202.426 309.638 200.932 309.638Z" fill="black"/>
<path d="M243.091 315.793C244.994 315.793 246.538 314.251 246.538 312.347C246.538 310.447 244.994 308.905 243.091 308.905C241.191 308.905 239.649 310.448 239.649 312.347C239.648 314.251 241.191 315.793 243.091 315.793Z" fill="black"/>
<path d="M251.515 315.058C253.009 315.058 254.225 313.846 254.225 312.351C254.225 310.853 253.009 309.638 251.515 309.638C250.016 309.638 248.806 310.853 248.806 312.351C248.806 313.846 250.016 315.058 251.515 315.058Z" fill="black"/>
<path d="M269.769 250.908C269.128 248.604 267.139 246.994 264.942 246.994C264.746 246.994 264.555 247.022 264.364 247.049C264.323 246.743 264.29 246.437 264.246 246.132C264.051 244.688 262.932 243.541 261.491 243.311C260.269 243.116 259.04 242.932 257.818 242.755C252.541 239.055 240.164 235.338 226.221 235.338H226.106H226.003C212.065 235.338 199.683 239.055 194.41 242.755C193.18 242.932 191.948 243.118 190.732 243.311C189.292 243.541 188.173 244.688 187.978 246.132C187.938 246.43 187.905 246.728 187.865 247.028C187.743 247.018 187.625 246.994 187.5 246.994C185.302 246.994 183.318 248.604 182.672 250.908C180.651 258.138 179.636 265.64 179.655 273.211C179.657 276.322 181.922 278.854 184.702 278.854H184.768C185.096 278.851 185.427 278.839 185.755 278.836C185.736 291.63 186.705 304.435 188.678 317.144C188.892 318.529 189.959 319.629 191.34 319.888C192.337 320.071 193.338 320.241 194.337 320.411V326.298C194.337 328.003 195.717 329.383 197.422 329.383H202.823C204.525 329.383 205.909 328.003 205.909 326.298V322.016C212.654 322.745 219.409 323.125 226.114 323.125C232.888 323.125 239.713 322.738 246.536 321.994V326.298C246.536 328.003 247.917 329.383 249.621 329.383H255.017C256.722 329.383 258.104 328.003 258.104 326.298V320.374C259.031 320.215 259.958 320.061 260.884 319.888C262.264 319.629 263.331 318.529 263.544 317.144C265.519 304.434 266.487 291.63 266.467 278.832C266.869 278.839 267.273 278.851 267.671 278.853H267.737C270.517 278.853 272.781 276.321 272.784 273.21C272.806 265.64 271.79 258.137 269.769 250.908ZM191.255 246.576C192.739 246.338 194.227 246.118 195.714 245.91C199.668 242.663 211.824 238.644 226.003 238.644H226.114H226.221C240.395 238.644 252.56 242.662 256.51 245.91C257.997 246.118 259.485 246.338 260.972 246.576C261.039 247.069 261.093 247.567 261.16 248.061C260.57 248.27 259.988 248.483 259.4 248.686C258.498 249.007 257.744 249.56 257.169 250.256C248.145 246.768 237.512 244.746 226.114 244.746C214.781 244.746 204.211 246.746 195.221 250.196C194.653 249.529 193.917 248.996 193.041 248.687C192.382 248.459 191.73 248.221 191.075 247.987C191.137 247.517 191.189 247.048 191.255 246.576ZM195.165 258.097H257.275L257.665 260.548C257.581 260.566 257.496 260.575 257.409 260.575H195.033C194.945 260.575 194.86 260.566 194.775 260.548L195.165 258.097ZM188.943 275.471C187.544 275.511 186.142 275.533 184.724 275.548H184.703C183.881 275.548 182.96 274.545 182.96 273.202C182.945 265.936 183.918 258.734 185.858 251.798C186.105 250.917 186.778 250.3 187.501 250.3C187.648 250.3 187.795 250.328 187.949 250.385C189.286 250.873 190.623 251.347 191.952 251.804C192.854 252.125 193.359 253.118 193.096 254.065C191.358 260.376 190.501 266.923 190.552 273.531C190.56 274.569 189.83 275.441 188.943 275.471ZM260.281 316.636C248.889 318.757 237.5 319.818 226.114 319.818C214.723 319.818 203.335 318.757 191.944 316.636C191.197 311.809 190.6 306.984 190.141 302.157H196.381C197.949 302.157 199.919 301.156 200.537 299.689C201.921 296.402 199.303 291.571 197.821 288.754C195.873 285.062 193.634 281.508 191.915 277.701C192.913 276.897 193.601 275.706 193.796 274.336C200.295 289.304 213.53 302.157 226.35 302.157C241.842 302.157 257.54 295.512 262.776 293.079C262.327 300.93 261.499 308.784 260.281 316.636ZM267.739 275.548H267.721C266.299 275.533 264.896 275.511 263.496 275.471C262.61 275.441 261.884 274.569 261.889 273.531C261.941 266.923 261.082 260.376 259.344 254.065C259.086 253.118 259.588 252.125 260.49 251.804C261.818 251.348 263.159 250.873 264.496 250.385C264.646 250.328 264.793 250.3 264.942 250.3C265.664 250.3 266.341 250.917 266.584 251.798C268.524 258.734 269.5 265.936 269.48 273.202C269.48 274.545 268.561 275.548 267.739 275.548Z" fill="black"/>
</g>
</g>
</g>
</g>
</g>
</g>
</g>
</g>
<defs>
<linearGradient id="paint0_linear_271_4717" x1="0" y1="0" x2="419.798" y2="992.226" gradientUnits="userSpaceOnUse">
<stop offset="0.255208" stop-color="white" stop-opacity="0"/>
<stop offset="1" stop-color="white"/>
</linearGradient>
<linearGradient id="paint1_linear_271_4717" x1="0" y1="0" x2="419.798" y2="992.226" gradientUnits="userSpaceOnUse">
<stop stop-color="white"/>
<stop offset="0.723958" stop-color="white" stop-opacity="0"/>
</linearGradient>
<clipPath id="clip0_271_4717">
<rect width="452" height="978.602" rx="17.5534" transform="matrix(1 0 0 -1 0 978.602)" fill="white"/>
</clipPath>
<clipPath id="clip1_271_4717">
<rect width="301.041" height="301.041" fill="white" transform="translate(75.6992 171.146)"/>
</clipPath>
<clipPath id="clip2_271_4717">
<rect width="300.955" height="300.955" fill="white" transform="translate(75.7417 171.188)"/>
</clipPath>
<clipPath id="clip3_271_4717">
<rect width="300.955" height="300.955" fill="white" transform="translate(75.7417 171.188)"/>
</clipPath>
<clipPath id="clip4_271_4717">
<rect width="180.959" height="172.655" fill="white" transform="translate(135.74 235.338)"/>
</clipPath>
<clipPath id="clip5_271_4717">
<rect width="180.959" height="172.655" fill="white" transform="translate(135.74 235.338)"/>
</clipPath>
<clipPath id="clip6_271_4717">
<rect width="180.959" height="172.655" fill="white" transform="translate(135.74 235.338)"/>
</clipPath>
<clipPath id="clip7_271_4717">
<rect width="180.959" height="68.0496" fill="white" transform="translate(135.74 339.944)"/>
</clipPath>
<clipPath id="clip8_271_4717">
<rect width="180.959" height="68.0496" fill="white" transform="translate(135.74 339.944)"/>
</clipPath>
<clipPath id="clip9_271_4717">
<rect width="180.959" height="44.7366" fill="white" transform="translate(135.74 339.944)"/>
</clipPath>
<clipPath id="clip10_271_4717">
<rect width="180.959" height="44.7366" fill="white" transform="translate(135.74 339.944)"/>
</clipPath>
<clipPath id="clip11_271_4717">
<rect width="180.959" height="12.7518" fill="white" transform="translate(135.74 395.242)"/>
</clipPath>
<clipPath id="clip12_271_4717">
<rect width="180.959" height="12.7518" fill="white" transform="translate(135.74 395.242)"/>
</clipPath>
<clipPath id="clip13_271_4717">
<rect width="93.1301" height="94.0446" fill="white" transform="translate(179.654 235.338)"/>
</clipPath>
<clipPath id="clip14_271_4717">
<rect width="93.1301" height="94.0446" fill="white" transform="translate(179.654 235.338)"/>
</clipPath>
</defs>
</svg>
